#N canvas 429 52 1186 789 10;
#X obj 80 -448 loadbang;
#X obj 80 -421 delay 300;
#X msg 80 -395 \; pd dsp 1 \;;
#X obj -8 -382 s initbang;
#X msg 452 -437 open;
#X obj 507 -463 r initbang;
#X obj 502 -362 terminal_tedium_adc, f 49;
#X msg 367 -459 deadband 2;
#X obj 502 -434 delay 10;
#X obj 331 -420 r initbang;
#X msg 331 -381 smooth 8;
#X obj 502 -401 metro 15;
#N canvas 670 111 687 300 removenoise 0;
#X obj 99 26 inlet;
#X obj 288 94 f;
#X obj 99 199 change;
#X text 371 138 smooth and remove noise;
#X obj 99 228 outlet;
#X obj 99 53 t f b;
#X obj 99 123 expr ($f1*(($f2*-1)+1))+($f3*$f2);
#X obj 60 96 sel 0;
#X obj 48 136 0;
#X msg 202 88 0.3;
#X obj 99 172 div 1;
#X connect 0 0 5 0;
#X connect 1 0 6 2;
#X connect 2 0 4 0;
#X connect 5 0 7 0;
#X connect 5 1 9 0;
#X connect 6 0 1 0;
#X connect 6 0 10 0;
#X connect 7 0 8 0;
#X connect 7 1 6 0;
#X connect 8 0 1 0;
#X connect 8 0 9 0;
#X connect 8 0 6 0;
#X connect 9 0 6 1;
#X connect 10 0 2 0;
#X restore 502 -336 pd removenoise;
#X obj 502 -315 clip 0 3998;
#X obj 502 -108 / 31.4803;
#X floatatom 502 -87 5 0 0 0 - - -;
#X obj 449 0 mtof;
#X obj 502 -63 + 0.5;
#X obj 502 -42 div 1;
#X obj 502 0 mtof;
#X floatatom 502 -21 5 0 0 0 - - -;
#X obj 502 -294 threshold 2;
#N canvas 670 111 687 300 removenoise 0;
#X obj 99 26 inlet;
#X obj 288 94 f;
#X obj 99 199 change;
#X text 371 138 smooth and remove noise;
#X obj 99 228 outlet;
#X obj 99 53 t f b;
#X obj 99 123 expr ($f1*(($f2*-1)+1))+($f3*$f2);
#X obj 60 96 sel 0;
#X obj 48 136 0;
#X msg 202 88 0.3;
#X obj 99 172 div 1;
#X connect 0 0 5 0;
#X connect 1 0 6 2;
#X connect 2 0 4 0;
#X connect 5 0 7 0;
#X connect 5 1 9 0;
#X connect 6 0 1 0;
#X connect 6 0 10 0;
#X connect 7 0 8 0;
#X connect 7 1 6 0;
#X connect 8 0 1 0;
#X connect 8 0 9 0;
#X connect 8 0 6 0;
#X connect 9 0 6 1;
#X connect 10 0 2 0;
#X restore 538 -249 pd removenoise;
#X obj 538 -207 threshold 2;
#X obj 538 -228 clip 0 4000;
#N canvas 670 111 687 300 removenoise 0;
#X obj 99 26 inlet;
#X obj 288 94 f;
#X obj 99 199 change;
#X text 371 138 smooth and remove noise;
#X obj 99 228 outlet;
#X obj 99 53 t f b;
#X obj 99 123 expr ($f1*(($f2*-1)+1))+($f3*$f2);
#X obj 60 96 sel 0;
#X obj 48 136 0;
#X msg 202 88 0.3;
#X obj 99 172 div 1;
#X connect 0 0 5 0;
#X connect 1 0 6 2;
#X connect 2 0 4 0;
#X connect 5 0 7 0;
#X connect 5 1 9 0;
#X connect 6 0 1 0;
#X connect 6 0 10 0;
#X connect 7 0 8 0;
#X connect 7 1 6 0;
#X connect 8 0 1 0;
#X connect 8 0 9 0;
#X connect 8 0 6 0;
#X connect 9 0 6 1;
#X connect 10 0 2 0;
#X restore 574 -162 pd removenoise;
#X obj 574 -120 threshold 2;
#X obj 574 -141 clip 0 4000;
#N canvas 670 111 687 300 removenoise 0;
#X obj 99 26 inlet;
#X obj 288 94 f;
#X obj 99 199 change;
#X text 371 138 smooth and remove noise;
#X obj 99 228 outlet;
#X obj 99 53 t f b;
#X obj 99 123 expr ($f1*(($f2*-1)+1))+($f3*$f2);
#X obj 60 96 sel 0;
#X obj 48 136 0;
#X msg 202 88 0.3;
#X obj 99 172 div 1;
#X connect 0 0 5 0;
#X connect 1 0 6 2;
#X connect 2 0 4 0;
#X connect 5 0 7 0;
#X connect 5 1 9 0;
#X connect 6 0 1 0;
#X connect 6 0 10 0;
#X connect 7 0 8 0;
#X connect 7 1 6 0;
#X connect 8 0 1 0;
#X connect 8 0 9 0;
#X connect 8 0 6 0;
#X connect 9 0 6 1;
#X connect 10 0 2 0;
#X restore 611 -334 pd removenoise;
#X obj 611 -292 threshold 2;
#X obj 611 -313 clip 0 4000;
#N canvas 670 111 687 300 removenoise 0;
#X obj 99 26 inlet;
#X obj 288 94 f;
#X obj 99 199 change;
#X text 371 138 smooth and remove noise;
#X obj 99 228 outlet;
#X obj 99 53 t f b;
#X obj 99 123 expr ($f1*(($f2*-1)+1))+($f3*$f2);
#X obj 60 96 sel 0;
#X obj 48 136 0;
#X msg 202 88 0.3;
#X obj 99 172 div 1;
#X connect 0 0 5 0;
#X connect 1 0 6 2;
#X connect 2 0 4 0;
#X connect 5 0 7 0;
#X connect 5 1 9 0;
#X connect 6 0 1 0;
#X connect 6 0 10 0;
#X connect 7 0 8 0;
#X connect 7 1 6 0;
#X connect 8 0 1 0;
#X connect 8 0 9 0;
#X connect 8 0 6 0;
#X connect 9 0 6 1;
#X connect 10 0 2 0;
#X restore 647 -225 pd removenoise;
#X obj 647 -183 threshold 2;
#X obj 647 -204 clip 0 4000;
#N canvas 670 111 687 300 removenoise 0;
#X obj 99 26 inlet;
#X obj 288 94 f;
#X obj 99 199 change;
#X text 371 138 smooth and remove noise;
#X obj 99 228 outlet;
#X obj 99 53 t f b;
#X obj 99 123 expr ($f1*(($f2*-1)+1))+($f3*$f2);
#X obj 60 96 sel 0;
#X obj 48 136 0;
#X msg 202 88 0.3;
#X obj 99 172 div 1;
#X connect 0 0 5 0;
#X connect 1 0 6 2;
#X connect 2 0 4 0;
#X connect 5 0 7 0;
#X connect 5 1 9 0;
#X connect 6 0 1 0;
#X connect 6 0 10 0;
#X connect 7 0 8 0;
#X connect 7 1 6 0;
#X connect 8 0 1 0;
#X connect 8 0 9 0;
#X connect 8 0 6 0;
#X connect 9 0 6 1;
#X connect 10 0 2 0;
#X restore 682 -135 pd removenoise;
#X obj 682 -93 threshold 2;
#X obj 682 -114 clip 0 4000;
#X floatatom 504 220 7 0 0 2 Hz_Quant - -;
#X floatatom 536 191 7 0 0 2 Hz_UnQ - -;
#X obj 538 -186 s \$0-Pot2;
#X obj 574 -99 s \$0-Pot3;
#X obj 611 -272 s \$0-Pot4;
#X obj 647 -162 s \$0-Pot5;
#X obj 682 -72 s \$0-Pot6;
#X obj 386 285 outlet;
#X obj 469 286 outlet;
#X obj 771 286 outlet;
#X obj 562 286 outlet;
#X obj 844 286 outlet;
#X obj 628 286 outlet;
#X obj 698 286 outlet;
#X obj 386 262 r \$0-PitchQ;
#X obj 628 263 r \$0-Pot3;
#X obj 698 263 r \$0-Pot4;
#X obj 844 265 r \$0-Pot6;
#X obj 771 263 r \$0-Pot5;
#X obj 469 262 r \$0-PitchUQ;
#X obj 562 263 r \$0-Pot2;
#X floatatom 583 221 6 0 0 2 Pot2 - -;
#X obj 583 136 vsl 10 64 0 4000 0 0 empty empty empty 0 -9 0 10 -262130
-1 -1 1386 1;
#X obj 396 72 r \$0-PitchQ;
#X obj 638 73 r \$0-Pot3;
#X obj 708 73 r \$0-Pot4;
#X obj 854 75 r \$0-Pot6;
#X obj 781 73 r \$0-Pot5;
#X obj 479 72 r \$0-PitchUQ;
#X obj 572 73 r \$0-Pot2;
#X floatatom 642 221 6 0 0 2 Pot_3 - -;
#X obj 643 136 vsl 10 64 0 4000 0 0 empty empty empty 0 -9 0 10 -204786
-1 -1 1958 1;
#X floatatom 703 221 6 0 0 2 Pot_4 - -;
#X obj 703 136 vsl 10 64 0 4000 0 0 empty empty empty 0 -9 0 10 -204800
-1 -1 0 1;
#X floatatom 763 221 6 0 0 2 Pot_5 - -;
#X obj 763 136 vsl 10 64 0 4000 0 0 empty empty empty 0 -9 0 10 -203904
-1 -1 5996 1;
#X floatatom 819 221 6 0 0 2 Pot_6 - -;
#X obj 819 136 vsl 10 64 0 4000 0 0 empty empty empty 0 -9 0 10 -232576
-1 -1 0 1;
#X floatatom 884 221 5 0 0 2 MIDI - -;
#X obj 1004 291 outlet;
#X obj 449 24 s \$0-PitchUQ;
#X obj 502 44 s \$0-PitchQ;
#X connect 0 0 1 0;
#X connect 1 0 2 0;
#X connect 1 0 3 0;
#X connect 4 0 6 0;
#X connect 5 0 4 0;
#X connect 5 0 8 0;
#X connect 6 0 12 0;
#X connect 6 1 22 0;
#X connect 6 2 25 0;
#X connect 6 3 28 0;
#X connect 6 4 31 0;
#X connect 6 5 34 0;
#X connect 7 0 6 0;
#X connect 8 0 11 0;
#X connect 9 0 10 0;
#X connect 10 0 6 0;
#X connect 11 0 6 0;
#X connect 12 0 13 0;
#X connect 13 0 21 0;
#X connect 14 0 15 0;
#X connect 15 0 17 0;
#X connect 15 0 16 0;
#X connect 16 0 77 0;
#X connect 17 0 18 0;
#X connect 18 0 20 0;
#X connect 19 0 78 0;
#X connect 20 0 19 0;
#X connect 20 0 75 0;
#X connect 21 0 14 0;
#X connect 22 0 24 0;
#X connect 23 0 39 0;
#X connect 24 0 23 0;
#X connect 25 0 27 0;
#X connect 26 0 40 0;
#X connect 27 0 26 0;
#X connect 28 0 30 0;
#X connect 29 0 41 0;
#X connect 30 0 29 0;
#X connect 31 0 33 0;
#X connect 32 0 42 0;
#X connect 33 0 32 0;
#X connect 34 0 36 0;
#X connect 35 0 43 0;
#X connect 36 0 35 0;
#X connect 51 0 44 0;
#X connect 52 0 49 0;
#X connect 53 0 50 0;
#X connect 54 0 48 0;
#X connect 55 0 46 0;
#X connect 56 0 45 0;
#X connect 57 0 47 0;
#X connect 59 0 58 0;
#X connect 60 0 37 0;
#X connect 61 0 68 0;
#X connect 62 0 70 0;
#X connect 63 0 74 0;
#X connect 64 0 72 0;
#X connect 65 0 38 0;
#X connect 66 0 59 0;
#X connect 68 0 67 0;
#X connect 70 0 69 0;
#X connect 72 0 71 0;
#X connect 74 0 73 0;
#X connect 75 0 76 0;
#X coords 0 -1 1 1 420 120 2 500 120;
