#N canvas 362 52 1457 880 10;
#X obj 163 1066 dac~;
#X obj 207 953 hsl 50 20 0 1 0 0 empty empty empty -2 -8 0 10 -262144
-1 -1 0 1;
#X floatatom 887 141 5 0 0 0 - - -, f 5;
#X floatatom 885 334 5 0 0 0 - - -, f 5;
#X floatatom 886 529 5 0 0 0 - - -, f 5;
#X obj -355 -304 t b f;
#X obj -374 -278 *;
#X obj 155 527 +~;
#X floatatom 1319 140 5 0 0 0 - - -, f 5;
#X floatatom 1317 331 5 0 0 0 - - -, f 5;
#X obj 151 -32 *~;
#X text -240 -28 1->0.445 0.03836->0.59;
#X obj -380 33 expr $f1*-0.55366+ 0.99785;
#X obj -173 32 expr $f1*(-0.73764*$f1+1.2841)+0.044372;
#X floatatom -380 55 5 0 0 0 - - -, f 5;
#X floatatom -173 54 5 0 0 0 - - -, f 5;
#X obj 151 -123 phasor~;
#X obj 151 -101 *~ 2;
#X obj 151 -79 +~ -1;
#X obj 353 84 *~;
#X obj 155 744 hip~, f 11;
#X obj -380 8 t f f, f 30;
#X obj -374 -354 r \$0-Pitch;
#X obj -374 -255 s \$0-Pitch1;
#X obj -222 -257 s \$0-Pitch2;
#X obj -94 -258 s \$0-Pitch3;
#X obj -86 -88 s \$0-Pitch7;
#X obj -214 -88 s \$0-Pitch6;
#X obj -354 -86 s \$0-Pitch5;
#X obj 887 159 s \$0-Factor1;
#X obj 884 188 r \$0-Detune;
#X obj 887 -5 r \$0-Detune;
#X obj 886 380 r \$0-Detune;
#X obj 885 353 s \$0-Factor2;
#X obj 886 549 s \$0-Factor3;
#X obj 1313 540 s \$0-Factor7;
#X obj 1319 158 s \$0-Factor5;
#X obj 1318 348 s \$0-Factor6;
#X obj -355 -331 r \$0-Factor1;
#X obj -202 -304 t b f;
#X obj -221 -278 *;
#X obj -221 -354 r \$0-Pitch;
#X obj -79 -309 t b f;
#X obj -98 -283 *;
#X obj -98 -359 r \$0-Pitch;
#X obj -333 -139 t b f;
#X obj -352 -113 *;
#X obj -352 -189 r \$0-Pitch;
#X obj -190 -145 t b f;
#X obj -209 -119 *;
#X obj -209 -195 r \$0-Pitch;
#X obj -68 -144 t b f;
#X obj -87 -118 *;
#X obj -87 -194 r \$0-Pitch;
#X obj -200 -332 r \$0-Factor2;
#X obj -79 -336 r \$0-Factor3;
#X obj -333 -166 r \$0-Factor5;
#X obj -190 -173 r \$0-Factor6;
#X obj -68 -172 r \$0-Factor7;
#X obj -380 74 s \$0-AmountCenter;
#X obj -173 73 s \$0-AmountSide;
#X obj 371 65 r \$0-AmountSide;
#X obj 169 -56 r \$0-AmountCenter;
#X obj 151 -150 r \$0-Pitch;
#X obj 154 329 +~;
#X obj 154 351 +~;
#X obj 155 507 +~;
#X obj 153 169 +~;
#X obj 211 97 *~;
#X obj 229 78 r \$0-AmountSide;
#X obj 151 143 +~;
#X obj 353 23 r \$0-Pitch2;
#X obj 371 295 *~;
#X obj 389 276 r \$0-AmountSide;
#X obj 211 297 *~;
#X obj 229 278 r \$0-AmountSide;
#X obj 211 227 r \$0-Pitch3;
#X obj 371 222 r \$0-Pitch5;
#X obj 371 469 *~;
#X obj 389 450 r \$0-AmountSide;
#X obj 211 469 *~;
#X obj 229 450 r \$0-AmountSide;
#X obj 211 397 r \$0-Pitch6;
#X obj 371 397 r \$0-Pitch7;
#X obj 221 660 *~ 0.8;
#X obj 229 721 r \$0-Pitch5;
#X floatatom 223 541 8 0 1500 0 - - -, f 8;
#X obj 248 821 sig~;
#X obj 155 842 ggee/moog~, f 14;
#X obj 183 880 delwrite~ \$0-TheDel 2000;
#X obj 223 562 t f f;
#X obj 155 683 +~, f 10;
#X obj 223 606 line~;
#X obj 222 630 delread4~ \$0-TheDel 80;
#X obj 223 585 pack f 30;
#X obj 1312 376 r \$0-Detune;
#X obj 1317 187 r \$0-Detune;
#X obj 1318 -6 r \$0-Detune;
#X floatatom 1312 522 5 0 0 0 - - -, f 5;
#X obj 1318 16 expr (10028.7312891634*pow($f1 \, 11)-(50818.8652045924*pow($f1
\, 10))+(111363.480872936*pow($f1 \, 9))-(138150.676108054*pow($f1
\, 8))+(106649.667915829*pow($f1 \, 7))-( 53046.9642751875*pow($f1
\, 6))+(17019.951858008*pow($f1 \, 5))-(3425.0836591318*pow($f1 \,
4))+(404.2703938388*pow($f1 \, 3))-(24.1878824391*pow($f1 \, 2))+(0.6717417634*$f1)+0.0030115596)*0.019912211+1
;
#X obj 1317 207 expr (10028.7312891634*pow($f1 \, 11)-(50818.8652045924*pow($f1
\, 10))+(111363.480872936*pow($f1 \, 9))-(138150.676108054*pow($f1
\, 8))+(106649.667915829*pow($f1 \, 7))-( 53046.9642751875*pow($f1
\, 6))+(17019.951858008*pow($f1 \, 5))-(3425.0836591318*pow($f1 \,
4))+(404.2703938388*pow($f1 \, 3))-(24.1878824391*pow($f1 \, 2))+(0.6717417634*$f1)+0.0030115596)*0.062165381+1
;
#X obj 1312 396 expr (10028.7312891634*pow($f1 \, 11)-(50818.8652045924*pow($f1
\, 10))+(111363.480872936*pow($f1 \, 9))-(138150.676108054*pow($f1
\, 8))+(106649.667915829*pow($f1 \, 7))-( 53046.9642751875*pow($f1
\, 6))+(17019.951858008*pow($f1 \, 5))-(3425.0836591318*pow($f1 \,
4))+(404.2703938388*pow($f1 \, 3))-(24.1878824391*pow($f1 \, 2))+(0.6717417634*$f1)+0.0030115596)*0.10745242+1
;
#X obj 887 17 expr (10028.7312891634*pow($f1 \, 11)-(50818.8652045924*pow($f1
\, 10))+(111363.480872936*pow($f1 \, 9))-(138150.676108054*pow($f1
\, 8))+(106649.667915829*pow($f1 \, 7))-( 53046.9642751875*pow($f1
\, 6))+(17019.951858008*pow($f1 \, 5))-(3425.0836591318*pow($f1 \,
4))+(404.2703938388*pow($f1 \, 3))-(24.1878824391*pow($f1 \, 2))+(0.6717417634*$f1)+0.0030115596)*(-0.110023131)+1
;
#X obj 885 208 expr (10028.7312891634*pow($f1 \, 11)-(50818.8652045924*pow($f1
\, 10))+(111363.480872936*pow($f1 \, 9))-(138150.676108054*pow($f1
\, 8))+(106649.667915829*pow($f1 \, 7))-( 53046.9642751875*pow($f1
\, 6))+(17019.951858008*pow($f1 \, 5))-(3425.0836591318*pow($f1 \,
4))+(404.2703938388*pow($f1 \, 3))-(24.1878824391*pow($f1 \, 2))+(0.6717417634*$f1)+0.0030115596)*(-0.062884391)+1
;
#X obj 886 402 expr (10028.7312891634*pow($f1 \, 11)-(50818.8652045924*pow($f1
\, 10))+(111363.480872936*pow($f1 \, 9))-(138150.676108054*pow($f1
\, 8))+(106649.667915829*pow($f1 \, 7))-(53046.9642751875*pow($f1 \,
6))+(17019.951858008*pow($f1 \, 5))-(3425.0836591318*pow($f1 \, 4))+(404.2703938388*pow($f1
\, 3))-(24.1878824391*pow($f1 \, 2))+(0.6717417634*$f1)+0.0030115596)*(-0.01952356)+1
;
#X obj -629 -578 JMGatesTD;
#X obj 407 -595 JMPotsTD;
#X obj -341 -575 JMSwitchTD;
#X obj 269 -553 JM_TrigOut;
#X text -339 -496 Change WaveShape 1;
#X text -189 -497 Change WaveShape 2;
#X text -571 -496 Receives tempo \; for WAveshape pulse;
#X text 76 -580 \; If B3 can provide internal \; pulse for morphing.
\; If B3 is pressed \; longer than 500ms \; \; then it stops internal
\; morphing clock;
#X obj -624 -451 s Gate1;
#X obj -350 -472 s B1;
#X obj -195 -470 s B2;
#X obj 411 -384 hsl 128 15 0 127 0 0 empty empty empty -2 -8 0 10 -262144
-1 -1 4700 1;
#X obj 407 -364 mtof;
#X obj 407 -467 * 127;
#X floatatom 407 -427 5 0 0 0 - - -, f 5;
#X obj 407 -445 div 1;
#X obj 407 -408 change;
#X obj 407 -340 s \$0-Pitch;
#X obj 454 -296 clip 0 3998;
#X obj 454 -274 / 3998;
#X floatatom 454 -252 5 0 0 0 - - -, f 5;
#X obj 453 -222 s \$0-Detune;
#X obj 432 -192 hsl 100 20 0 1 0 0 empty empty empty -2 -8 0 10 -262144
-1 -1 3969 1;
#X obj 553 -437 / 3998;
#X floatatom 554 -331 5 0 0 0 - - -, f 5;
#X obj 614 -337 hsl 100 20 0 15000 0 0 empty empty CutOff -2 -8 0 10
-262144 -1 -1 198 1;
#X obj 554 -311 s \$0-CutOff;
#X obj 554 -352 mtof;
#X obj 554 -414 * 127;
#X floatatom 554 -392 5 0 0 0 - - -, f 5;
#X obj 554 -373 threshold 0.04;
#X obj 201 767 r \$0-CutOff;
#X obj 201 789 sig~;
#X obj 601 -234 clip 0 3998;
#X obj 601 -213 / 3998;
#X obj 651 -108 hsl 100 20 0 4 0 0 empty empty Q -2 -8 0 10 -262144
-1 -1 4165 1;
#X floatatom 602 -168 5 0 0 0 - - -, f 5;
#X obj 602 -149 threshold 0.04;
#X obj 504 -162 clip 0 3998;
#X floatatom 504 -92 5 0 0 0 - - -, f 5;
#X obj 482 -40 hsl 100 20 0 1 0 0 empty empty empty -2 -8 0 10 -262144
-1 -1 0 1;
#X obj 504 -67 s \$0-Mix;
#X obj -380 -22 r \$0-Mix;
#X obj 602 -190 * 4;
#X obj 602 -87 s \$0-Q;
#X obj 248 796 r \$0-Q;
#X obj 504 -115 / 3998;
#X obj 504 -140 threshold 3;
#X obj 792 -285 clip 0 3998;
#X obj 852 -174 hsl 100 20 0 400 0 0 empty empty DelayTime -2 -8 0
10 -262144 -1 -1 2242 1;
#X floatatom 792 -229 5 0 0 0 - - -, f 5;
#X obj 156 722 /~ 1;
#X obj 792 -148 s \$0-DelTime;
#X obj 275 515 r \$0-DelTime;
#X obj 792 -251 / 10;
#X obj 793 -209 threshold 0.4;
#X obj -262 -430 s B1Pressed;
#X obj 866 -470 r B1Pressed;
#X obj 865 -395 tgl 15 0 empty empty empty 17 7 0 10 -262144 -1 -1
0 1;
#X obj 866 -448 t f f;
#X obj 915 -396 tgl 15 0 empty empty empty 17 7 0 10 -262144 -1 -1
-1 1;
#X obj 892 -414 - 1;
#X obj 830 -359 spigot;
#X obj 890 -359 spigot;
#X obj 974 -316 clip 0 3998;
#X obj 974 -294 / 3998;
#X floatatom 974 -272 5 0 0 0 - - -, f 5;
#X obj 971 -173 hsl 100 20 0 1 0 0 empty empty empty -2 -8 0 10 -262144
-1 -1 151 1;
#X obj 992 -203 s \$0-Wet;
#X obj 274 661 r \$0-Wet;
#X obj 993 -239 threshold 0.04;
#X obj 553 -458 clip 0 4000;
#X obj 154 986 *~ 1;
#X obj 868 -252 r initbang;
#X msg 1058 -265 0.2;
#X msg 837 -249 20;
#X obj 1058 -286 r initbang;
#X obj -473 -37 r initbang;
#X msg -473 -16 0.5;
#X obj 818 -507 r initbang;
#X msg 820 -481 0;
#X text 70 -407 \; Pot 1 receives pitch \; \; \; Pot 2 receives Detune
amount \; Pot 3 receives Mix \; Pot 4 receives CutOff for moog \; Pot
5 receives Q for moog \; Pot 6 receives amount of delay line \; Pot
6 +But 1 receives Delay time;
#X obj 354 44 osc~;
#X obj 371 251 osc~;
#X obj 211 255 osc~;
#X obj 211 425 osc~;
#X obj 371 426 osc~;
#X obj 210 33 r \$0-Pitch1;
#X obj 210 57 osc~;
#X connect 1 0 177 1;
#X connect 2 0 29 0;
#X connect 3 0 33 0;
#X connect 4 0 34 0;
#X connect 5 0 6 0;
#X connect 5 1 6 1;
#X connect 6 0 23 0;
#X connect 7 0 91 0;
#X connect 8 0 36 0;
#X connect 9 0 37 0;
#X connect 10 0 70 0;
#X connect 12 0 14 0;
#X connect 13 0 15 0;
#X connect 14 0 59 0;
#X connect 15 0 60 0;
#X connect 16 0 17 0;
#X connect 17 0 18 0;
#X connect 18 0 10 0;
#X connect 19 0 67 1;
#X connect 20 0 88 0;
#X connect 21 0 12 0;
#X connect 21 1 13 0;
#X connect 22 0 6 0;
#X connect 30 0 103 0;
#X connect 31 0 102 0;
#X connect 32 0 104 0;
#X connect 38 0 5 0;
#X connect 39 0 40 0;
#X connect 39 1 40 1;
#X connect 40 0 24 0;
#X connect 41 0 40 0;
#X connect 42 0 43 0;
#X connect 42 1 43 1;
#X connect 43 0 25 0;
#X connect 44 0 43 0;
#X connect 45 0 46 0;
#X connect 45 1 46 1;
#X connect 46 0 28 0;
#X connect 47 0 46 0;
#X connect 48 0 49 0;
#X connect 48 1 49 1;
#X connect 49 0 27 0;
#X connect 50 0 49 0;
#X connect 51 0 52 0;
#X connect 51 1 52 1;
#X connect 52 0 26 0;
#X connect 53 0 52 0;
#X connect 54 0 39 0;
#X connect 55 0 42 0;
#X connect 56 0 45 0;
#X connect 57 0 48 0;
#X connect 58 0 51 0;
#X connect 61 0 19 1;
#X connect 62 0 10 1;
#X connect 63 0 16 0;
#X connect 64 0 65 0;
#X connect 65 0 66 0;
#X connect 66 0 7 0;
#X connect 67 0 64 0;
#X connect 68 0 70 1;
#X connect 69 0 68 1;
#X connect 70 0 67 0;
#X connect 71 0 187 0;
#X connect 72 0 65 1;
#X connect 73 0 72 1;
#X connect 74 0 64 1;
#X connect 75 0 74 1;
#X connect 76 0 189 0;
#X connect 77 0 188 0;
#X connect 78 0 7 1;
#X connect 79 0 78 1;
#X connect 80 0 66 1;
#X connect 81 0 80 1;
#X connect 82 0 190 0;
#X connect 83 0 191 0;
#X connect 84 0 91 1;
#X connect 85 0 20 1;
#X connect 86 0 90 0;
#X connect 87 0 88 2;
#X connect 88 0 89 0;
#X connect 88 0 177 0;
#X connect 90 0 94 0;
#X connect 91 0 156 0;
#X connect 92 0 93 0;
#X connect 93 0 84 0;
#X connect 94 0 92 0;
#X connect 95 0 101 0;
#X connect 96 0 100 0;
#X connect 97 0 99 0;
#X connect 98 0 35 0;
#X connect 99 0 8 0;
#X connect 100 0 9 0;
#X connect 101 0 98 0;
#X connect 102 0 2 0;
#X connect 103 0 3 0;
#X connect 104 0 4 0;
#X connect 105 0 113 0;
#X connect 106 0 118 0;
#X connect 106 1 123 0;
#X connect 106 2 143 0;
#X connect 106 3 176 0;
#X connect 106 4 138 0;
#X connect 106 5 167 0;
#X connect 106 5 168 0;
#X connect 107 0 114 0;
#X connect 107 2 161 0;
#X connect 107 3 115 0;
#X connect 116 0 117 0;
#X connect 117 0 122 0;
#X connect 118 0 120 0;
#X connect 119 0 121 0;
#X connect 120 0 119 0;
#X connect 121 0 116 0;
#X connect 123 0 124 0;
#X connect 124 0 125 0;
#X connect 125 0 126 0;
#X connect 125 0 127 0;
#X connect 128 0 133 0;
#X connect 129 0 130 0;
#X connect 129 0 131 0;
#X connect 132 0 129 0;
#X connect 133 0 134 0;
#X connect 134 0 135 0;
#X connect 135 0 132 0;
#X connect 136 0 137 0;
#X connect 137 0 88 1;
#X connect 138 0 139 0;
#X connect 139 0 148 0;
#X connect 141 0 142 0;
#X connect 142 0 149 0;
#X connect 142 0 140 0;
#X connect 143 0 152 0;
#X connect 144 0 145 0;
#X connect 144 0 146 0;
#X connect 147 0 21 0;
#X connect 148 0 141 0;
#X connect 150 0 87 0;
#X connect 151 0 144 0;
#X connect 152 0 151 0;
#X connect 153 0 159 0;
#X connect 155 0 160 0;
#X connect 156 0 20 0;
#X connect 158 0 86 0;
#X connect 159 0 155 0;
#X connect 160 0 154 0;
#X connect 160 0 157 0;
#X connect 162 0 164 0;
#X connect 163 0 167 1;
#X connect 164 0 166 0;
#X connect 164 0 163 0;
#X connect 165 0 168 1;
#X connect 166 0 165 0;
#X connect 167 0 153 0;
#X connect 168 0 169 0;
#X connect 169 0 170 0;
#X connect 170 0 171 0;
#X connect 171 0 175 0;
#X connect 174 0 84 1;
#X connect 175 0 173 0;
#X connect 175 0 172 0;
#X connect 176 0 128 0;
#X connect 177 0 0 0;
#X connect 177 0 0 1;
#X connect 178 0 180 0;
#X connect 179 0 171 0;
#X connect 180 0 155 0;
#X connect 181 0 179 0;
#X connect 182 0 183 0;
#X connect 183 0 21 0;
#X connect 184 0 185 0;
#X connect 185 0 164 0;
#X connect 187 0 19 0;
#X connect 188 0 72 0;
#X connect 189 0 74 0;
#X connect 190 0 80 0;
#X connect 191 0 78 0;
#X connect 192 0 193 0;
#X connect 193 0 68 0;
