#N canvas -23 52 1739 880 10;
#X obj 163 1066 dac~;
#X obj 192 951 hsl 50 20 0 1 0 0 empty empty empty -2 -8 0 10 -262144
-1 -1 0 1;
#X floatatom 887 141 5 0 0 0 - - -;
#X floatatom 885 334 5 0 0 0 - - -;
#X floatatom 886 529 5 0 0 0 - - -;
#X obj -355 -304 t b f;
#X obj -374 -278 *;
#X obj 155 527 +~;
#X floatatom 1319 140 5 0 0 0 - - -;
#X floatatom 1317 331 5 0 0 0 - - -;
#X obj 151 -32 *~;
#X text -240 -28 1->0.445 0.03836->0.59;
#X obj -380 33 expr $f1*-0.55366+ 0.99785;
#X obj -173 32 expr $f1*(-0.73764*$f1+1.2841)+0.044372;
#X floatatom -380 55 5 0 0 0 - - -;
#X floatatom -173 54 5 0 0 0 - - -;
#X obj 151 -123 phasor~;
#X obj 151 -101 *~ 2;
#X obj 151 -79 +~ -1;
#X obj 353 84 *~;
#X obj 353 0 phasor~;
#X obj 353 22 *~ 2;
#X obj 352 44 +~ -1;
#X obj 155 794 hip~, f 11;
#X obj -380 8 t f f, f 30;
#X obj -374 -354 r \$0-Pitch;
#X obj -374 -255 s \$0-Pitch1;
#X obj -222 -257 s \$0-Pitch2;
#X obj -94 -258 s \$0-Pitch3;
#X obj -86 -88 s \$0-Pitch7;
#X obj -214 -88 s \$0-Pitch6;
#X obj -354 -86 s \$0-Pitch5;
#X obj 887 159 s \$0-Factor1;
#X obj 884 188 r \$0-Detune;
#X obj 887 -5 r \$0-Detune;
#X obj 886 380 r \$0-Detune;
#X obj 885 353 s \$0-Factor2;
#X obj 886 549 s \$0-Factor3;
#X obj 1313 540 s \$0-Factor7;
#X obj 1319 158 s \$0-Factor5;
#X obj 1318 348 s \$0-Factor6;
#X obj -355 -331 r \$0-Factor1;
#X obj -202 -304 t b f;
#X obj -221 -278 *;
#X obj -221 -354 r \$0-Pitch;
#X obj -79 -309 t b f;
#X obj -98 -283 *;
#X obj -98 -359 r \$0-Pitch;
#X obj -333 -139 t b f;
#X obj -352 -113 *;
#X obj -352 -189 r \$0-Pitch;
#X obj -190 -145 t b f;
#X obj -209 -119 *;
#X obj -209 -195 r \$0-Pitch;
#X obj -68 -144 t b f;
#X obj -87 -118 *;
#X obj -87 -194 r \$0-Pitch;
#X obj -200 -332 r \$0-Factor2;
#X obj -79 -336 r \$0-Factor3;
#X obj -333 -166 r \$0-Factor5;
#X obj -190 -173 r \$0-Factor6;
#X obj -68 -172 r \$0-Factor7;
#X obj -380 74 s \$0-AmountCenter;
#X obj -173 73 s \$0-AmountSide;
#X obj 371 65 r \$0-AmountSide;
#X obj 169 -56 r \$0-AmountCenter;
#X obj 151 -150 r \$0-Pitch;
#X obj 154 329 +~;
#X obj 154 351 +~;
#X obj 155 507 +~;
#X obj 153 169 +~;
#X obj 211 97 *~;
#X obj 211 13 phasor~;
#X obj 211 35 *~ 2;
#X obj 210 57 +~ -1;
#X obj 229 78 r \$0-AmountSide;
#X obj 151 143 +~;
#X obj 211 -11 r \$0-Pitch1;
#X obj 371 295 *~;
#X obj 371 211 phasor~;
#X obj 371 233 *~ 2;
#X obj 370 255 +~ -1;
#X obj 389 276 r \$0-AmountSide;
#X obj 211 297 *~;
#X obj 211 213 phasor~;
#X obj 211 235 *~ 2;
#X obj 210 257 +~ -1;
#X obj 229 278 r \$0-AmountSide;
#X obj 211 185 r \$0-Pitch3;
#X obj 371 182 r \$0-Pitch5;
#X obj 371 469 *~;
#X obj 371 385 phasor~;
#X obj 371 407 *~ 2;
#X obj 370 429 +~ -1;
#X obj 389 450 r \$0-AmountSide;
#X obj 211 469 *~;
#X obj 211 385 phasor~;
#X obj 211 407 *~ 2;
#X obj 210 429 +~ -1;
#X obj 229 450 r \$0-AmountSide;
#X obj 211 357 r \$0-Pitch6;
#X obj 371 356 r \$0-Pitch7;
#X obj 229 771 r \$0-Pitch5;
#X floatatom 213 596 8 0 1500 0 - - -;
#X obj 248 871 sig~;
#X obj 155 892 ggee/moog~, f 14;
#X obj 36 862 delwrite~ \$0-TheDel 2000;
#X obj 213 617 t f f;
#X obj 155 744 +~, f 10;
#X obj 213 661 line~;
#X obj 212 685 delread4~ \$0-TheDel 80;
#X obj 213 640 pack f 30;
#X obj 1312 376 r \$0-Detune;
#X obj 1317 187 r \$0-Detune;
#X obj 1318 -6 r \$0-Detune;
#X floatatom 1312 522 5 0 0 0 - - -;
#X obj 1318 16 expr (10028.7312891634*pow($f1 \, 11)-(50818.8652045924*pow($f1
\, 10))+(111363.480872936*pow($f1 \, 9))-(138150.676108054*pow($f1
\, 8))+(106649.667915829*pow($f1 \, 7))-( 53046.9642751875*pow($f1
\, 6))+(17019.951858008*pow($f1 \, 5))-(3425.0836591318*pow($f1 \,
4))+(404.2703938388*pow($f1 \, 3))-(24.1878824391*pow($f1 \, 2))+(0.6717417634*$f1)+0.0030115596)*0.019912211+1
;
#X obj 1317 207 expr (10028.7312891634*pow($f1 \, 11)-(50818.8652045924*pow($f1
\, 10))+(111363.480872936*pow($f1 \, 9))-(138150.676108054*pow($f1
\, 8))+(106649.667915829*pow($f1 \, 7))-( 53046.9642751875*pow($f1
\, 6))+(17019.951858008*pow($f1 \, 5))-(3425.0836591318*pow($f1 \,
4))+(404.2703938388*pow($f1 \, 3))-(24.1878824391*pow($f1 \, 2))+(0.6717417634*$f1)+0.0030115596)*0.062165381+1
;
#X obj 1312 396 expr (10028.7312891634*pow($f1 \, 11)-(50818.8652045924*pow($f1
\, 10))+(111363.480872936*pow($f1 \, 9))-(138150.676108054*pow($f1
\, 8))+(106649.667915829*pow($f1 \, 7))-( 53046.9642751875*pow($f1
\, 6))+(17019.951858008*pow($f1 \, 5))-(3425.0836591318*pow($f1 \,
4))+(404.2703938388*pow($f1 \, 3))-(24.1878824391*pow($f1 \, 2))+(0.6717417634*$f1)+0.0030115596)*0.10745242+1
;
#X obj 887 17 expr (10028.7312891634*pow($f1 \, 11)-(50818.8652045924*pow($f1
\, 10))+(111363.480872936*pow($f1 \, 9))-(138150.676108054*pow($f1
\, 8))+(106649.667915829*pow($f1 \, 7))-( 53046.9642751875*pow($f1
\, 6))+(17019.951858008*pow($f1 \, 5))-(3425.0836591318*pow($f1 \,
4))+(404.2703938388*pow($f1 \, 3))-(24.1878824391*pow($f1 \, 2))+(0.6717417634*$f1)+0.0030115596)*(-0.110023131)+1
;
#X obj 885 208 expr (10028.7312891634*pow($f1 \, 11)-(50818.8652045924*pow($f1
\, 10))+(111363.480872936*pow($f1 \, 9))-(138150.676108054*pow($f1
\, 8))+(106649.667915829*pow($f1 \, 7))-( 53046.9642751875*pow($f1
\, 6))+(17019.951858008*pow($f1 \, 5))-(3425.0836591318*pow($f1 \,
4))+(404.2703938388*pow($f1 \, 3))-(24.1878824391*pow($f1 \, 2))+(0.6717417634*$f1)+0.0030115596)*(-0.062884391)+1
;
#X obj 886 402 expr (10028.7312891634*pow($f1 \, 11)-(50818.8652045924*pow($f1
\, 10))+(111363.480872936*pow($f1 \, 9))-(138150.676108054*pow($f1
\, 8))+(106649.667915829*pow($f1 \, 7))-(53046.9642751875*pow($f1 \,
6))+(17019.951858008*pow($f1 \, 5))-(3425.0836591318*pow($f1 \, 4))+(404.2703938388*pow($f1
\, 3))-(24.1878824391*pow($f1 \, 2))+(0.6717417634*$f1)+0.0030115596)*(-0.01952356)+1
;
#X obj -629 -578 JMGatesTD;
#X obj -341 -575 JMSwitchTD;
#X obj 269 -553 JM_TrigOut;
#X text -571 -496 Receives tempo \; for WAveshape pulse;
#X text 76 -580 \; If B3 can provide internal \; pulse for morphing.
\; If B3 is pressed \; longer than 500ms \; \; then it stops internal
\; morphing clock;
#X obj -624 -451 s Gate1;
#X obj -350 -472 s B1;
#X obj -195 -470 s B2;
#X obj 836 -370 s \$0-Pitch;
#X obj 201 817 r \$0-CutOff;
#X obj 201 839 sig~;
#X obj -380 -22 r \$0-Mix;
#X obj 248 846 r \$0-Q;
#X obj 1488 -398 clip 0 3998;
#X floatatom 1488 -342 5 0 0 0 - - -;
#X obj 1489 -297 s \$0-DelTime;
#X obj 213 576 r \$0-DelTime;
#X obj 1488 -364 / 10;
#X obj 1489 -322 threshold 0.4;
#X obj -262 -430 s B1Pressed;
#X obj 1518 -516 r B1Pressed;
#X obj 1523 -461 tgl 15 0 empty empty empty 17 7 0 10 -262144 -1 -1
0 1;
#X obj 1518 -494 t f f;
#X obj 1703 -435 tgl 15 0 empty empty empty 17 7 0 10 -262144 -1 -1
-1 1;
#X obj 1703 -457 - 1;
#X obj 1488 -425 spigot;
#X obj 1670 -410 spigot;
#X obj 1670 -386 clip 0 3998;
#X obj 1670 -364 / 3998;
#X floatatom 1670 -342 5 0 0 0 - - -;
#X obj 1670 -295 s \$0-Wet;
#X obj 85 605 r \$0-Wet;
#X obj 1670 -318 threshold 0.04;
#X obj 154 986 *~ 1;
#X obj 1564 -365 r initbang;
#X msg 1624 -417 0.2;
#X msg 1533 -362 20;
#X obj 1624 -438 r initbang;
#X obj -473 -37 r initbang;
#X msg -473 -16 0.5;
#X obj 1501 -571 r initbang;
#X msg 1501 -545 0;
#X obj 978 -695 JMPotsTD2;
#X obj 864 -566 f;
#X obj 904 -565 + 1;
#X obj 864 -471 - 1;
#X obj 864 -450 abs;
#X obj 925 -423 tgl 15 0 empty empty empty 17 7 0 10 -262144 -1 -1
1 1;
#X obj 892 -401 spigot;
#X obj 869 -422 tgl 15 0 empty empty empty 17 7 0 10 -262144 -1 -1
0 1;
#X obj 836 -400 spigot;
#X obj 791 -469 loadbang;
#X floatatom 864 -545 5 0 0 0 - - -;
#X floatatom 864 -502 5 0 0 0 - - -;
#X obj 864 -523 mod 2;
#X obj 1096 -559 / 4000;
#X floatatom 1096 -539 5 0 0 0 - - -;
#X obj 1096 -519 s \$0-Detune;
#X obj 1214 -553 / 3998;
#X floatatom 1215 -447 5 0 0 0 - - -;
#X obj 1215 -427 s \$0-CutOff;
#X obj 1215 -468 mtof;
#X obj 1215 -530 * 127;
#X floatatom 1215 -508 5 0 0 0 - - -;
#X obj 1215 -489 threshold 0.04;
#X obj 1273 -358 clip 0 3998;
#X obj 1273 -337 / 3998;
#X floatatom 1274 -292 5 0 0 0 - - -;
#X obj 1274 -273 threshold 0.04;
#X obj 1274 -314 * 4;
#X obj 1274 -231 s \$0-Q;
#X obj 85 626 - 1;
#X obj 85 647 abs;
#X obj 155 716 *~ 0.9;
#X obj 211 715 *~ 0.1;
#X obj 864 -591 r B2;
#X connect 1 0 155 1;
#X connect 2 0 32 0;
#X connect 3 0 36 0;
#X connect 4 0 37 0;
#X connect 5 0 6 0;
#X connect 5 1 6 1;
#X connect 6 0 26 0;
#X connect 7 0 195 0;
#X connect 8 0 39 0;
#X connect 9 0 40 0;
#X connect 10 0 76 0;
#X connect 12 0 14 0;
#X connect 13 0 15 0;
#X connect 14 0 62 0;
#X connect 15 0 63 0;
#X connect 16 0 17 0;
#X connect 17 0 18 0;
#X connect 18 0 10 0;
#X connect 19 0 70 1;
#X connect 20 0 21 0;
#X connect 21 0 22 0;
#X connect 22 0 19 0;
#X connect 23 0 105 0;
#X connect 23 0 106 0;
#X connect 24 0 12 0;
#X connect 24 1 13 0;
#X connect 25 0 6 0;
#X connect 33 0 120 0;
#X connect 34 0 119 0;
#X connect 35 0 121 0;
#X connect 41 0 5 0;
#X connect 42 0 43 0;
#X connect 42 1 43 1;
#X connect 43 0 27 0;
#X connect 44 0 43 0;
#X connect 45 0 46 0;
#X connect 45 1 46 1;
#X connect 46 0 28 0;
#X connect 47 0 46 0;
#X connect 48 0 49 0;
#X connect 48 1 49 1;
#X connect 49 0 31 0;
#X connect 50 0 49 0;
#X connect 51 0 52 0;
#X connect 51 1 52 1;
#X connect 52 0 30 0;
#X connect 53 0 52 0;
#X connect 54 0 55 0;
#X connect 54 1 55 1;
#X connect 55 0 29 0;
#X connect 56 0 55 0;
#X connect 57 0 42 0;
#X connect 58 0 45 0;
#X connect 59 0 48 0;
#X connect 60 0 51 0;
#X connect 61 0 54 0;
#X connect 64 0 19 1;
#X connect 65 0 10 1;
#X connect 66 0 16 0;
#X connect 67 0 68 0;
#X connect 68 0 69 0;
#X connect 69 0 7 0;
#X connect 70 0 67 0;
#X connect 71 0 76 1;
#X connect 72 0 73 0;
#X connect 73 0 74 0;
#X connect 74 0 71 0;
#X connect 75 0 71 1;
#X connect 76 0 70 0;
#X connect 77 0 72 0;
#X connect 78 0 68 1;
#X connect 79 0 80 0;
#X connect 80 0 81 0;
#X connect 81 0 78 0;
#X connect 82 0 78 1;
#X connect 83 0 67 1;
#X connect 84 0 85 0;
#X connect 85 0 86 0;
#X connect 86 0 83 0;
#X connect 87 0 83 1;
#X connect 88 0 84 0;
#X connect 89 0 79 0;
#X connect 90 0 7 1;
#X connect 91 0 92 0;
#X connect 92 0 93 0;
#X connect 93 0 90 0;
#X connect 94 0 90 1;
#X connect 95 0 69 1;
#X connect 96 0 97 0;
#X connect 97 0 98 0;
#X connect 98 0 95 0;
#X connect 99 0 95 1;
#X connect 100 0 96 0;
#X connect 101 0 91 0;
#X connect 102 0 23 1;
#X connect 103 0 107 0;
#X connect 104 0 105 2;
#X connect 105 0 155 0;
#X connect 107 0 111 0;
#X connect 108 0 23 0;
#X connect 109 0 110 0;
#X connect 110 0 196 0;
#X connect 111 0 109 0;
#X connect 112 0 118 0;
#X connect 113 0 117 0;
#X connect 114 0 116 0;
#X connect 115 0 38 0;
#X connect 116 0 8 0;
#X connect 117 0 9 0;
#X connect 118 0 115 0;
#X connect 119 0 2 0;
#X connect 120 0 3 0;
#X connect 121 0 4 0;
#X connect 122 0 127 0;
#X connect 123 0 128 0;
#X connect 123 2 141 0;
#X connect 123 3 129 0;
#X connect 131 0 132 0;
#X connect 132 0 105 1;
#X connect 133 0 24 0;
#X connect 134 0 104 0;
#X connect 135 0 139 0;
#X connect 136 0 140 0;
#X connect 138 0 103 0;
#X connect 139 0 136 0;
#X connect 140 0 137 0;
#X connect 142 0 144 0;
#X connect 143 0 147 1;
#X connect 144 0 146 0;
#X connect 144 0 143 0;
#X connect 145 0 148 1;
#X connect 146 0 145 0;
#X connect 147 0 135 0;
#X connect 148 0 149 0;
#X connect 149 0 150 0;
#X connect 150 0 151 0;
#X connect 151 0 154 0;
#X connect 153 0 193 0;
#X connect 153 0 196 1;
#X connect 154 0 152 0;
#X connect 155 0 0 0;
#X connect 155 0 0 1;
#X connect 156 0 158 0;
#X connect 157 0 151 0;
#X connect 158 0 136 0;
#X connect 159 0 157 0;
#X connect 160 0 161 0;
#X connect 161 0 24 0;
#X connect 162 0 163 0;
#X connect 163 0 144 0;
#X connect 164 0 172 0;
#X connect 164 1 170 0;
#X connect 164 2 177 0;
#X connect 164 4 180 0;
#X connect 164 5 187 0;
#X connect 164 6 147 0;
#X connect 164 6 148 0;
#X connect 165 0 166 0;
#X connect 165 0 174 0;
#X connect 165 0 176 0;
#X connect 166 0 165 1;
#X connect 167 0 168 0;
#X connect 168 0 171 0;
#X connect 169 0 170 1;
#X connect 170 0 130 0;
#X connect 171 0 172 1;
#X connect 172 0 130 0;
#X connect 173 0 171 0;
#X connect 175 0 167 0;
#X connect 175 0 169 0;
#X connect 176 0 175 0;
#X connect 177 0 178 0;
#X connect 178 0 179 0;
#X connect 180 0 184 0;
#X connect 181 0 182 0;
#X connect 183 0 181 0;
#X connect 184 0 185 0;
#X connect 185 0 186 0;
#X connect 186 0 183 0;
#X connect 187 0 188 0;
#X connect 188 0 191 0;
#X connect 189 0 190 0;
#X connect 190 0 192 0;
#X connect 191 0 189 0;
#X connect 193 0 194 0;
#X connect 194 0 195 1;
#X connect 195 0 108 0;
#X connect 196 0 108 1;
#X connect 197 0 165 0;
